<svg width="20" height="21" viewBox="0 0 20 21" fill="none" xmlns="http://www.w3.org/2000/svg">
<g clip-path="url(#clip0_2502_5133)">
<path d="M7.2 16.8249C5.15625 15.8624 3.69375 13.8749 3.46875 11.5249H2.53125C2.85 15.3749 6.06875 18.3999 10 18.3999L10.4125 18.3812L8.03125 15.9999L7.2 16.8249ZM7.75625 12.7499C7.6375 12.7499 7.525 12.7312 7.43125 12.6999C7.33125 12.6624 7.25 12.6187 7.18125 12.5499C7.1125 12.4874 7.05625 12.4124 7.01875 12.3187C6.98125 12.2312 6.9625 12.1312 6.9625 12.0249H6.15C6.15 12.2499 6.19375 12.4499 6.28125 12.6187C6.36875 12.7874 6.4875 12.9312 6.63125 13.0499C6.78125 13.1624 6.95 13.2499 7.14375 13.3062C7.33125 13.3687 7.53125 13.3999 7.74375 13.3999C7.975 13.3999 8.19375 13.3687 8.3875 13.3062C8.5875 13.2437 8.7625 13.1499 8.90625 13.0312C9.05 12.9124 9.16875 12.7624 9.25 12.5812C9.33125 12.3999 9.375 12.1999 9.375 11.9749C9.375 11.8562 9.3625 11.7374 9.33125 11.6249C9.3 11.5124 9.25625 11.4062 9.1875 11.3062C9.125 11.2062 9.0375 11.1187 8.9375 11.0374C8.83125 10.9562 8.70625 10.8937 8.55625 10.8437C8.68125 10.7874 8.7875 10.7187 8.88125 10.6374C8.975 10.5562 9.05 10.4687 9.1125 10.3749C9.175 10.2812 9.21875 10.1874 9.25 10.0874C9.28125 9.9874 9.29375 9.8874 9.29375 9.7874C9.29375 9.5624 9.25625 9.3624 9.18125 9.1874C9.10625 9.0124 9 8.86865 8.8625 8.75615C8.7375 8.6374 8.56875 8.5499 8.38125 8.4874C8.1875 8.43115 7.975 8.3999 7.74375 8.3999C7.51875 8.3999 7.3125 8.43115 7.11875 8.4999C6.93125 8.56865 6.7625 8.6624 6.625 8.78115C6.49375 8.8999 6.3875 9.0374 6.30625 9.1999C6.23125 9.3624 6.19375 9.5374 6.19375 9.73115H7.00625C7.00625 9.6249 7.025 9.53115 7.0625 9.4499C7.1 9.36865 7.15 9.29365 7.21875 9.2374C7.2875 9.18115 7.3625 9.13115 7.45625 9.0999C7.55 9.06865 7.64375 9.0499 7.75625 9.0499C8.00625 9.0499 8.19375 9.1124 8.3125 9.24365C8.43125 9.36865 8.49375 9.5499 8.49375 9.78115C8.49375 9.89365 8.475 9.99365 8.44375 10.0874C8.4125 10.1812 8.35625 10.2562 8.2875 10.3187C8.21875 10.3812 8.13125 10.4312 8.03125 10.4687C7.93125 10.5062 7.80625 10.5249 7.66875 10.5249H7.1875V11.1687H7.66875C7.80625 11.1687 7.93125 11.1812 8.04375 11.2124C8.15625 11.2437 8.25 11.2937 8.325 11.3562C8.4 11.4249 8.4625 11.5062 8.50625 11.6062C8.55 11.7062 8.56875 11.8249 8.56875 11.9624C8.56875 12.2187 8.49375 12.4124 8.35 12.5437C8.20625 12.6874 8.00625 12.7499 7.75625 12.7499ZM13.1 9.0499C12.9 8.84365 12.6625 8.68115 12.3875 8.56865C12.1187 8.45615 11.8125 8.3999 11.475 8.3999H10V13.3999H11.4375C11.7812 13.3999 12.1 13.3437 12.3812 13.2312C12.6625 13.1187 12.9062 12.9624 13.1062 12.7562C13.3062 12.5499 13.4625 12.2999 13.5687 12.0124C13.675 11.7187 13.7312 11.3937 13.7312 11.0312V10.7812C13.7312 10.4187 13.675 10.0937 13.5687 9.7999C13.4562 9.50615 13.3 9.25615 13.1 9.0499ZM12.8562 11.0249C12.8562 11.2874 12.825 11.5187 12.7687 11.7312C12.7062 11.9374 12.6187 12.1187 12.5 12.2624C12.3812 12.4062 12.2312 12.5187 12.0562 12.5937C11.875 12.6687 11.6687 12.7062 11.4375 12.7062H10.8687V9.0999H11.475C11.925 9.0999 12.2687 9.24365 12.5 9.53115C12.7375 9.81865 12.8562 10.2312 12.8562 10.7749V11.0249ZM10 3.3999L9.5875 3.41865L11.9687 5.7999L12.8 4.96865C14.8437 5.9374 16.3062 7.91865 16.525 10.2687H17.4625C17.15 6.4249 13.9312 3.3999 10 3.3999Z" fill="#2C3556"/>
</g>
<defs>
<clipPath id="clip0_2502_5133">
<rect width="15" height="15" fill="white" transform="translate(2.5 3.3999)"/>
</clipPath>
</defs>
</svg>
