<svg width="37" height="36" viewBox="0 0 37 36" fill="none" xmlns="http://www.w3.org/2000/svg">
<path d="M9.5 12.5C9.5 10.567 11.067 9 13 9H31C32.933 9 34.5 10.567 34.5 12.5V30.5C34.5 32.433 32.933 34 31 34H13C11.067 34 9.5 32.433 9.5 30.5V12.5Z" fill="white"/>
<path d="M10.1896 34H7.04568C4.54255 34 2.5 31.9674 2.5 29.4543V5.9149C2.5 3.75219 4.25218 2 6.41488 2H10.8104C12.9731 2 14.7253 3.75219 14.7253 5.9149V8.81846V29.4543C14.7253 31.9674 12.6927 34 10.1896 34Z" fill="white"/>
<path d="M2.5 29.3342C2.5 26.8311 4.53253 24.7885 7.04568 24.7885H9.62903H10.1896C12.6927 24.7885 14.7353 26.8211 14.7353 29.3342" fill="white"/>
<path d="M9.62903 33.9999H30.8055C32.838 33.9999 34.4901 32.3479 34.5001 30.3153V12.5131C34.5001 10.4705 32.8481 8.81846 30.8055 8.81846H14.9185M14.6551 27.2116L23.0456 33.8999M14.7653 17.99L33.3786 32.8385M34.3398 24.2979L14.9185 8.81846M26.4828 8.81846L34.4899 15.1164M2.5 29.3342C2.5 26.8311 4.53253 24.7885 7.04568 24.7885H9.62903H10.1896C12.6927 24.7885 14.7353 26.8211 14.7353 29.3342M14.9185 8.81846H14.7253M14.7253 8.81846V5.9149C14.7253 3.75219 12.9731 2 10.8104 2H6.41488C4.25218 2 2.5 3.75219 2.5 5.9149V29.4543C2.5 31.9674 4.54255 34 7.04568 34H10.1896C12.6927 34 14.7253 31.9674 14.7253 29.4543V8.81846Z" stroke="#038298" stroke-miterlimit="10"/>
<path d="M10.8004 30.6959H6.52503C5.77409 30.6959 5.16333 30.0852 5.16333 29.3342C5.16333 28.5833 5.77409 27.9725 6.52503 27.9725H10.8004C11.5513 27.9725 12.1621 28.5833 12.1621 29.3342C12.1621 30.0852 11.5513 30.6959 10.8004 30.6959Z" stroke="#038298" stroke-miterlimit="10"/>
</svg>
