<svg width="36" height="36" viewBox="0 0 36 36" fill="none" xmlns="http://www.w3.org/2000/svg">
<path d="M21.9084 5.00951C21.299 6.57314 19.7947 7.73634 18.0143 7.73634C16.2148 7.73634 14.6534 6.59223 14.0631 5L8.55994 5.86762C8.43617 5.88669 8.32192 5.94388 8.23623 6.02969L2.17138 12.103C1.94287 12.3319 1.94287 12.7037 2.17138 12.9325L5.47516 16.2409C5.71318 16.4793 6.09402 16.4697 6.32252 16.2218L8.17911 14.191C8.30288 14.048 8.54091 14.1434 8.54091 14.3341V30.4184C8.54091 30.7426 8.79798 31 9.12169 31H27.2401C27.5638 31 27.8209 30.7426 27.8209 30.4184L27.8685 14.582C27.8685 14.3817 28.1256 14.2959 28.2398 14.458L29.6204 16.2981C29.8298 16.5842 30.2487 16.6127 30.4963 16.3649L33.8286 13.0279C34.0571 12.799 34.0571 12.4272 33.8286 12.1984L27.8304 6.19179C27.7447 6.10598 27.64 6.04876 27.5257 6.02969L21.9084 5.00951Z" fill="white"/>
<path d="M18.3055 12.8432C17.2807 14.6655 17.1241 15.9337 18.3106 17.5998C18.3106 17.5998 19.0994 16.6494 19.1771 15.4603C19.2548 14.2712 18.3055 12.8432 18.3055 12.8432Z" fill="white"/>
<path d="M12.9796 18.1888C14.7951 17.1601 16.0587 17.0029 17.7186 18.1939C17.7186 18.1939 16.7717 18.9856 15.587 19.0636C14.4023 19.1416 12.9796 18.1888 12.9796 18.1888Z" fill="white"/>
<path d="M18.3537 23.6838C19.3785 21.8615 19.5351 20.5932 18.3486 18.9271C18.3486 18.9271 17.5597 19.8776 17.482 21.0666C17.4043 22.2557 18.3537 23.6838 18.3537 23.6838Z" fill="white"/>
<path d="M23.6794 18.3382C21.8639 19.3668 20.6004 19.524 18.9404 18.3331C18.9404 18.3331 19.8874 17.5413 21.0721 17.4633C22.2567 17.3853 23.6794 18.3382 23.6794 18.3382Z" fill="white"/>
</svg>
