<svg width="37" height="36" viewBox="0 0 37 36" fill="none" xmlns="http://www.w3.org/2000/svg">
<path d="M22.4084 5.00951C21.799 6.57314 20.2947 7.73634 18.5143 7.73634C16.7148 7.73634 15.1534 6.59223 14.5631 5L9.05994 5.86762C8.93617 5.88669 8.82192 5.94388 8.73623 6.02969L2.67138 12.103C2.44287 12.3319 2.44287 12.7037 2.67138 12.9325L5.97516 16.2409C6.21318 16.4793 6.59402 16.4697 6.82252 16.2218L8.67911 14.191C8.80288 14.048 9.04091 14.1434 9.04091 14.3341V30.4184C9.04091 30.7426 9.29798 31 9.62169 31H27.7401C28.0638 31 28.3209 30.7426 28.3209 30.4184L28.3685 14.582C28.3685 14.3817 28.6256 14.2959 28.7398 14.458L30.1204 16.2981C30.3298 16.5842 30.7487 16.6127 30.9963 16.3649L34.3286 13.0279C34.5571 12.799 34.5571 12.4272 34.3286 12.1984L28.3304 6.19179C28.2447 6.10598 28.14 6.04876 28.0257 6.02969L22.4084 5.00951Z" fill="white" stroke="#2C3556" stroke-miterlimit="10" stroke-linecap="round" stroke-linejoin="round"/>
</svg>
