<svg width="50" height="50" viewBox="0 0 50 50" fill="none" xmlns="http://www.w3.org/2000/svg">
<path d="M20.181 1.54643C16.498 2.48241 13.0334 4.27374 10.1409 6.73952C4.07473 11.913 0.737863 20.1617 1.63451 28.0821C2.53116 36.0025 7.68689 43.3429 14.8915 46.7544C19.2843 48.8348 24.3437 49.4798 29.118 48.5694C33.8922 47.659 38.3578 45.1932 41.675 41.642C44.9135 36.8834 48.1619 31.8555 48.917 26.1492C49.8373 19.1963 46.7068 11.9995 41.4135 7.40021C36.1201 2.80095 28.8938 0.710739 21.8897 1.06665C19.3138 1.19839 16.7202 1.65065 14.3901 2.75966C11.5271 4.12036 9.19114 6.40918 7.28379 8.94182C4.2871 12.9236 2.21655 17.6664 1.77019 22.6314C1.32383 27.5964 2.58032 32.7679 5.60454 36.7281C9.8066 42.2319 15.5955 47.2303 22.4934 47.8261C29.3913 48.4219 36.4288 45.437 41.0654 40.295C45.7021 35.1531 47.9358 28.0153 47.4187 21.1115C47.2574 18.9485 46.8327 16.7816 45.9026 14.8212C45.065 13.0534 43.838 11.4961 42.4753 10.0941C37.7541 5.23528 31.1807 2.13633 24.4086 1.92593C17.6365 1.71554 10.7622 4.48807 6.27703 9.56318C1.79182 14.6383 -0.11356 21.9767 1.65418 28.5167" stroke="#FFC433" stroke-width="0.497581" stroke-miterlimit="10" stroke-linecap="round"/>
<path d="M38.9301 33.9435C38.7374 33.9435 38.5841 34.0969 38.5841 34.2896C38.5841 34.4823 38.7374 34.6357 38.9301 34.6357C39.1228 34.6357 39.2782 34.4823 39.2782 34.2896C39.2782 34.0969 39.1228 33.9435 38.9301 33.9435ZM38.881 15.9811C39.1012 15.9811 39.2782 15.8021 39.2782 15.5839C39.2782 15.3636 39.0992 15.1886 38.881 15.1886C38.6608 15.1886 38.4838 15.3636 38.4838 15.5839C38.4838 15.8021 38.6608 15.9811 38.881 15.9811ZM36.3424 13.3462C36.5823 13.3462 36.777 13.1515 36.777 12.9116C36.777 12.6717 36.5823 12.477 36.3424 12.477C36.1026 12.477 35.9079 12.6717 35.9079 12.9116C35.9099 13.1515 36.1045 13.3462 36.3424 13.3462ZM36.2599 35.8843C35.959 35.8843 35.7152 36.1262 35.7152 36.425C35.7152 36.7259 35.959 36.9697 36.2599 36.9697C36.5607 36.9697 36.8006 36.7259 36.8006 36.425C36.8006 36.1262 36.5607 35.8843 36.2599 35.8843ZM14.1779 35.9924C13.938 35.9924 13.7434 36.1871 13.7434 36.427C13.7434 36.6689 13.938 36.8616 14.1779 36.8616C14.4198 36.8616 14.6125 36.6689 14.6125 36.427C14.6125 36.1871 14.4198 35.9924 14.1779 35.9924ZM14.2625 12.3689C13.9616 12.3689 13.7178 12.6127 13.7178 12.9136C13.7178 13.2144 13.9616 13.4543 14.2625 13.4543C14.5633 13.4543 14.8032 13.2125 14.8032 12.9136C14.8052 12.6127 14.5633 12.3689 14.2625 12.3689ZM11.6413 33.3595C11.4211 33.3595 11.2441 33.5385 11.2441 33.7567C11.2441 33.9769 11.4231 34.1539 11.6413 34.1539C11.8576 34.1539 12.0366 33.975 12.0366 33.7567C12.0366 33.5365 11.8596 33.3595 11.6413 33.3595ZM11.5902 15.3971C11.7829 15.3971 11.9383 15.2417 11.9383 15.049C11.9383 14.8583 11.7829 14.7029 11.5902 14.7029C11.3995 14.7029 11.2441 14.8583 11.2441 15.049C11.2441 15.2417 11.4014 15.3971 11.5902 15.3971Z" fill="#FF606B"/>
<path d="M47.7815 24.068C47.7481 23.8655 47.7717 23.6492 47.7835 23.4368C47.813 22.9118 47.7618 22.3966 47.5829 21.9365C47.5514 21.6357 47.5102 21.3348 47.463 21.0359C47.1798 19.219 46.6941 17.4316 46.0275 15.7189C44.8615 12.7183 43.139 9.93006 40.9642 7.55276C40.6417 7.19882 40.2957 6.74853 39.9103 6.34543C39.694 5.90104 39.3243 5.55299 38.8091 5.34063C37.8259 4.9454 36.8408 4.55016 35.9166 4.06251C34.8371 3.49621 33.6495 3.28384 32.4107 3.19536C31.2505 3.10491 30.0806 3.06951 28.9243 2.96923C28.358 2.92007 27.7878 2.95743 27.2254 2.93973C26.4114 2.91221 25.5993 2.91024 24.7891 2.81979C23.3124 2.64872 21.8042 2.86108 20.298 3.19732C19.5882 3.3566 18.8842 3.59649 18.1567 3.62009C18.0879 3.62205 18.0151 3.64172 17.9443 3.66335C15.4235 4.44595 13.0069 5.43501 11.0445 7.42691C9.6405 8.85251 8.21884 10.2683 6.97611 11.8335C5.72356 13.4105 4.77382 15.1389 4.0797 16.9794C3.54486 18.3951 3.15749 19.8424 2.93922 21.2994C2.65214 23.2186 2.53416 25.1298 2.86057 26.9939C3.06704 28.1894 3.21451 29.4027 3.4603 30.5844C3.73362 31.898 4.13869 33.1643 4.56932 34.4227C4.91343 35.4275 5.38928 36.3537 5.90839 37.2582C6.56908 38.4105 7.34382 39.4506 8.54328 40.1035C8.55311 40.2765 8.61603 40.4122 8.77924 40.483C8.78317 40.5479 8.80874 40.6088 8.84806 40.6619C8.85986 40.8369 8.92082 40.9785 9.08992 41.0552C9.12925 41.1791 9.16858 41.3029 9.20987 41.4249C9.27869 41.4838 9.34358 41.5487 9.40257 41.6156C9.4124 41.6765 9.436 41.7355 9.47336 41.7808C9.50285 41.8889 9.56577 41.9499 9.68376 41.9518L9.68179 41.9636C10.0751 42.7698 10.8065 43.2614 11.4672 43.812C11.77 44.0637 12.1574 44.221 12.5035 44.4215C12.6293 44.5828 12.8043 44.6831 13.0128 44.7165C13.2605 45.0409 13.6931 45.0724 14.0254 45.2612C14.1945 45.4735 14.4639 45.4775 14.7097 45.5286C14.7982 45.5679 14.8788 45.621 14.9634 45.6643H14.9653C15.0165 45.7567 15.0912 45.8039 15.2072 45.7901C15.2721 45.7921 15.3389 45.7881 15.4019 45.7783C15.5002 45.8078 15.5828 45.857 15.6673 45.9042H15.6693C15.744 45.9553 15.8246 45.9985 15.9111 46.0339C15.9741 46.0379 16.0409 46.0339 16.1019 46.0221C16.2022 46.0457 16.2867 46.0949 16.3732 46.146H16.3752C16.4538 46.1991 16.5364 46.2443 16.619 46.2856L16.6308 46.2876C16.678 46.38 16.7508 46.4292 16.8628 46.4115C16.9317 46.4134 17.0025 46.4075 17.0673 46.3977C17.1519 46.439 17.2384 46.4803 17.323 46.5196C17.4744 46.557 17.6258 46.5943 17.7772 46.6317C17.8598 46.6789 17.9424 46.7222 18.0309 46.7615C18.1764 46.8008 18.3278 46.8401 18.4772 46.8795C18.5657 46.9188 18.6483 46.964 18.7387 46.9994L18.7486 47.0033C18.8587 47.1528 19.016 47.1567 19.1949 47.1135C19.2736 47.1607 19.3542 47.198 19.4407 47.2334C19.5056 47.2354 19.5725 47.2295 19.6373 47.2196C19.7258 47.2531 19.8163 47.2904 19.8989 47.3337C19.9618 47.3357 20.0286 47.3337 20.0935 47.3298C20.5281 47.7073 21.1219 47.7152 21.6666 47.7741C23.2397 47.9433 24.8068 48.1517 26.4251 48.0494C27.2412 47.9983 28.069 47.8587 28.887 47.7663C30.0176 47.6404 31.0814 47.257 32.1413 46.8401C33.4823 46.3151 34.8135 45.7429 35.9481 44.7637C36.0189 44.7421 36.0838 44.7145 36.1487 44.6811C36.3296 44.6437 36.4711 44.5592 36.5341 44.3763L36.536 44.3724C36.6619 44.3095 36.8094 44.2701 36.9234 44.1797C37.5507 43.6783 38.176 43.171 38.7895 42.6459C38.9232 42.5358 38.9998 42.3549 39.1041 42.2075C39.6822 41.9007 40.042 41.3442 40.508 40.9097C41.5954 39.9009 42.3682 38.6602 43.1272 37.4155C43.2412 37.2248 43.3415 37.0281 43.3572 36.804C43.369 36.5798 43.4713 36.3694 43.6424 36.218C43.9963 35.9014 44.1733 35.4885 44.364 35.0972C44.6196 34.5584 44.9343 34.0491 45.2784 33.5595C45.4534 33.3137 45.5792 33.0502 45.6834 32.769C45.8683 32.2893 46.0452 31.7996 46.293 31.3474C47.0441 29.9886 47.229 28.5159 47.697 27.1021C47.7088 27.0647 47.7264 27.0234 47.7186 26.9979C47.4197 26.054 47.9368 25.0276 47.7815 24.068ZM11.5911 14.7043C11.7838 14.7043 11.9391 14.8597 11.9391 15.0504C11.9391 15.2431 11.7838 15.3984 11.5911 15.3984C11.4004 15.3984 11.245 15.2431 11.245 15.0504C11.245 14.8597 11.4023 14.7043 11.5911 14.7043ZM11.6422 34.1553C11.422 34.1553 11.245 33.9764 11.245 33.7581C11.245 33.5379 11.424 33.3609 11.6422 33.3609C11.8585 33.3609 12.0375 33.5398 12.0375 33.7581C12.0375 33.9764 11.8605 34.1553 11.6422 34.1553ZM14.1788 36.861C13.9389 36.861 13.7442 36.6683 13.7442 36.4264C13.7442 36.1865 13.9389 35.9919 14.1788 35.9919C14.4207 35.9919 14.6134 36.1865 14.6134 36.4264C14.6134 36.6683 14.4207 36.861 14.1788 36.861ZM14.2634 13.4557C13.9625 13.4557 13.7187 13.2138 13.7187 12.915C13.7187 12.6141 13.9625 12.3703 14.2634 12.3703C14.5642 12.3703 14.8041 12.6141 14.8041 12.915C14.8061 13.2138 14.5642 13.4557 14.2634 13.4557ZM39.928 25.4385C39.9673 25.4405 40.0027 25.4464 40.0479 25.4405C40.04 25.4444 40.04 25.4503 40.0361 25.4543C40.0086 25.4661 39.9653 25.4621 39.9417 25.4464C39.9358 25.4464 39.9319 25.4405 39.928 25.4385ZM41.1333 26.7462C41.1628 26.9507 41.2139 27.0608 41.3142 27.108C41.2847 27.104 41.2533 27.0942 41.2257 27.0686C41.1255 26.9841 41.0999 26.87 41.1333 26.7462ZM38.8819 15.9824C38.6616 15.9824 38.4847 15.8035 38.4847 15.5852C38.4847 15.365 38.6636 15.19 38.8819 15.19C39.1021 15.19 39.2791 15.365 39.2791 15.5852C39.2791 15.8035 39.1021 15.9824 38.8819 15.9824ZM34.2688 13.4124C34.2708 13.4124 34.2728 13.4105 34.2767 13.4105C34.2728 13.4223 34.2669 13.4321 34.259 13.4439C34.257 13.44 34.2551 13.4321 34.2511 13.4262C34.257 13.4183 34.2649 13.4144 34.2688 13.4124ZM36.3433 13.3475C36.1034 13.3475 35.9088 13.1529 35.9088 12.913C35.9088 12.6731 36.1034 12.4784 36.3433 12.4784C36.5832 12.4784 36.7779 12.6731 36.7779 12.913C36.7779 13.1529 36.5832 13.3475 36.3433 13.3475ZM35.0573 41.9695C35.0357 41.8574 35.0495 41.7532 35.1478 41.6942C35.1144 41.7867 35.0849 41.8771 35.0573 41.9695ZM36.2607 36.9711C35.9599 36.9711 35.7161 36.7273 35.7161 36.4264C35.7161 36.1256 35.9599 35.8857 36.2607 35.8857C36.5616 35.8857 36.8015 36.1275 36.8015 36.4264C36.8015 36.7273 36.5616 36.9711 36.2607 36.9711ZM38.931 34.6371C38.7383 34.6371 38.585 34.4837 38.585 34.291C38.585 34.0983 38.7383 33.9449 38.931 33.9449C39.1237 33.9449 39.2791 34.0983 39.2791 34.291C39.2791 34.4837 39.1237 34.6371 38.931 34.6371Z" fill="#D800A2"/>
<path d="M36.7793 12.915C36.7793 13.1552 36.5846 13.3502 36.3447 13.3502C36.1048 13.3502 35.9102 13.1552 35.9102 12.915C35.9102 12.6747 36.1048 12.4797 36.3447 12.4797C36.5846 12.4797 36.7793 12.6747 36.7793 12.915Z" fill="#FF606B"/>
<path d="M39.2788 15.5821C39.2788 15.8027 39.0998 15.9799 38.8816 15.9799C38.6613 15.9799 38.4844 15.8007 38.4844 15.5821C38.4844 15.3615 38.6633 15.1863 38.8816 15.1863C39.1018 15.1882 39.2788 15.3635 39.2788 15.5821Z" fill="#FF606B"/>
<path d="M14.8081 12.9131C14.8081 13.2139 14.5662 13.4538 14.2673 13.4538C13.9665 13.4538 13.7227 13.212 13.7227 12.9131C13.7227 12.6122 13.9665 12.3684 14.2673 12.3684C14.5662 12.3684 14.8081 12.6122 14.8081 12.9131Z" fill="#FF606B"/>
<path d="M11.9422 15.0494C11.9422 15.2423 11.7868 15.3979 11.5941 15.3979C11.4034 15.3979 11.248 15.2423 11.248 15.0494C11.248 14.8583 11.4034 14.7028 11.5941 14.7028C11.7849 14.7028 11.9422 14.8583 11.9422 15.0494Z" fill="#FF606B"/>
<path d="M14.6152 36.4279C14.6152 36.6701 14.4225 36.8631 14.1807 36.8631C13.9408 36.8631 13.7461 36.6701 13.7461 36.4279C13.7461 36.1876 13.9408 35.9927 14.1807 35.9927C14.4225 35.9927 14.6152 36.1876 14.6152 36.4279Z" fill="#FF606B"/>
<path d="M12.0385 33.7572C12.0385 33.9777 11.8596 34.155 11.6433 34.155C11.4231 34.155 11.2461 33.9758 11.2461 33.7572C11.2461 33.5366 11.425 33.3594 11.6433 33.3594C11.8616 33.3594 12.0385 33.5366 12.0385 33.7572Z" fill="#FF606B"/>
<path d="M36.8003 36.4275C36.8003 36.7283 36.5584 36.9721 36.2595 36.9721C35.9587 36.9721 35.7148 36.7283 35.7148 36.4275C35.7148 36.1266 35.9587 35.8867 36.2595 35.8867C36.5604 35.8848 36.8003 36.1266 36.8003 36.4275Z" fill="#FF606B"/>
<path d="M39.2801 34.29C39.2801 34.4829 39.1247 34.6365 38.932 34.6365C38.7393 34.6365 38.5859 34.4829 38.5859 34.29C38.5859 34.097 38.7393 33.9434 38.932 33.9434C39.1247 33.9434 39.2801 34.097 39.2801 34.29Z" fill="#FF606B"/>
<path d="M46.9349 19.7584C46.5692 19.9197 46.1956 20.0593 45.82 20.1753C42.0309 21.363 37.9271 21.127 34.0869 22.1338C33.1194 22.3874 32.1835 22.7197 31.2632 23.0992C27.9401 24.4796 24.8785 26.5364 21.6341 28.1527C16.1047 30.9076 9.85966 32.4098 3.64997 32.459C3.45334 31.7983 3.2744 31.1298 3.13283 30.4494C2.88703 29.2676 2.73956 28.0524 2.53309 26.8589C2.33843 25.744 2.30107 24.6133 2.36399 23.4748C2.40528 22.706 2.49573 21.9371 2.60978 21.1644C2.69237 20.6138 2.80051 20.0632 2.93226 19.5166C4.77472 19.4772 6.68206 19.8508 8.54811 19.7899C8.65233 19.7879 8.75458 19.786 8.86076 19.7781H8.87453C9.09869 19.7663 9.32088 19.7447 9.54308 19.7152C14.4491 19.0663 17.7702 14.6106 21.522 11.3877C25.9797 7.55928 31.6958 5.26654 37.5476 4.82214C37.8563 4.95192 38.171 5.0758 38.4836 5.20165C39.0008 5.41401 39.3685 5.76205 39.5848 6.20644C39.9702 6.60954 40.3143 7.05787 40.6348 7.41181L40.6367 7.41377C42.8154 9.79107 44.538 12.5774 45.704 15.58C45.9242 16.1404 46.1209 16.7086 46.2959 17.2808C46.5515 18.0949 46.7638 18.9208 46.9349 19.7584Z" fill="#FF6D00"/>
<path d="M40.638 7.41183C39.6666 8.44022 38.4199 9.27394 37.1241 9.81075C35.1951 10.613 33.1285 10.9827 31.0737 11.4015C30.1771 11.5844 29.2804 11.7771 28.4015 12.0189C28.1183 12.0976 27.8391 12.1802 27.5618 12.2706C22.3255 13.9538 18.1136 17.7921 13.3983 20.6158C12.248 21.302 10.7359 21.9253 9.06845 22.413C8.93277 22.4523 8.80102 22.4916 8.66338 22.527C6.63019 23.0894 4.4043 23.4453 2.36914 23.4728C2.41043 22.706 2.50285 21.9352 2.6169 21.1604C2.69949 20.6099 2.80567 20.0593 2.93938 19.5126C3.15174 18.6121 3.42703 17.7194 3.75934 16.8404C4.45542 14.9999 5.4032 13.2715 6.65575 11.6945C7.89848 10.1273 9.32014 8.71551 10.7241 7.28795C12.6865 5.29605 15.1031 4.30698 17.624 3.52438C17.6948 3.50275 17.7675 3.48309 17.8363 3.48112C18.5619 3.45753 19.2678 3.21764 19.9777 3.06033C21.4839 2.72409 22.9901 2.50976 24.4688 2.68279C25.2809 2.77128 26.091 2.77324 26.9051 2.80077C27.4694 2.8165 28.0396 2.78308 28.604 2.83027C28.6472 2.8342 28.6905 2.83813 28.7338 2.8401C29.6638 2.91679 30.6018 2.95611 31.5378 3.01707C31.7226 3.02887 31.9074 3.04263 32.0923 3.0564C33.3311 3.14685 34.5187 3.35921 35.5963 3.92552C36.2255 4.25783 36.8842 4.54688 37.5528 4.82216C37.8615 4.94998 38.1761 5.07582 38.4888 5.20363C39.0059 5.416 39.3736 5.76404 39.5899 6.20843C39.9733 6.60956 40.3155 7.05789 40.638 7.41183Z" fill="#FFA100"/>
<path d="M47.3206 26.5458C47.0906 26.5772 46.8644 26.6047 46.6383 26.6264C44.1725 26.88 41.6261 26.882 39.3255 27.8081C34.2248 29.859 31.9006 35.6342 28.1587 39.6632C25.1718 42.8781 21.1487 45.0372 16.9073 46.1599C16.7559 46.1993 16.6045 46.2386 16.4531 46.274C16.3843 46.2642 16.3391 46.2209 16.3037 46.1521L16.2919 46.1501C16.2093 46.1088 16.1267 46.0656 16.048 46.0105H16.0461C15.9615 45.9594 15.875 45.9102 15.7747 45.8866C15.7138 45.8984 15.6489 45.9043 15.584 45.8984C15.4994 45.865 15.4188 45.8198 15.3421 45.7686H15.3402C15.2556 45.7195 15.1711 45.6703 15.0747 45.6428C15.0118 45.6526 14.9449 45.6566 14.88 45.6546C14.766 45.6664 14.6893 45.6212 14.6382 45.5287H14.6362C14.5517 45.4855 14.471 45.4304 14.3826 45.3931C14.1368 45.3419 13.8654 45.336 13.6983 45.1256C13.366 44.9388 12.9353 44.9054 12.6856 44.581C12.4752 44.5475 12.3022 44.4473 12.1763 44.286C11.8302 44.0855 11.4429 43.9282 11.1401 43.6765C10.4794 43.1259 9.7479 42.6363 9.35463 41.8281L9.3566 41.8163C9.23862 41.8143 9.17569 41.7534 9.1462 41.6452C9.10884 41.598 9.08524 41.541 9.07541 41.4801C9.01642 41.4152 8.95153 41.3483 8.88271 41.2893C8.84142 41.1674 8.80209 41.0435 8.76276 40.9197C8.59366 40.8449 8.5327 40.7034 8.52091 40.5264C8.48158 40.4753 8.45798 40.4143 8.45208 40.3475C8.28888 40.2767 8.22595 40.141 8.21612 39.968C7.01666 39.3151 6.24192 38.2749 5.58123 37.1227C5.1978 36.4541 4.83796 35.7738 4.53711 35.06C10.0763 34.9617 15.5918 33.4731 20.4172 30.7439C24.2614 28.5711 27.6592 25.6491 31.2616 23.0988C33.2751 21.6692 35.3555 20.3577 37.6128 19.3588C40.3854 18.1357 43.3132 17.4613 46.2922 17.2823C46.5479 18.0964 46.7602 18.9223 46.9313 19.7599C47.01 20.1375 47.0768 20.5189 47.1358 20.8984C47.183 21.1954 47.2243 21.4982 47.2557 21.799C47.4347 22.2572 47.4858 22.7743 47.4563 23.2993C47.4445 23.5117 47.419 23.728 47.4543 23.9305C47.5959 24.7819 47.2007 25.6884 47.3206 26.5458Z" fill="#FF274F"/>
<path d="M35.4838 11.9283C33.2717 11.9283 31.3978 13.1199 29.7284 15.572C28.9418 15.1079 27.766 14.3804 26.7848 13.8927C26.8123 13.6312 26.8241 13.5565 26.8221 13.118C26.421 3.95287 17.6983 -0.709307 10.5625 7.35267L10.6018 7.39003C11.3628 6.82176 13.1246 5.67145 15.6356 5.47089C16.5028 5.40206 18.4278 5.27425 20.4728 6.37343C22.7282 7.5847 23.7035 9.52154 24.0142 10.1606C24.5746 11.3129 24.7732 12.3668 24.8499 13.0747C22.3133 12.6087 19.877 13.3205 18.5616 15.0312C18.3492 15.3085 16.9846 17.1037 17.6452 19.0032C17.9441 19.8645 18.595 20.5468 19.413 20.9617C20.3666 21.4474 21.5504 21.5693 22.6791 21.1957C24.1951 20.6923 25.6128 19.2923 26.2283 16.6633C26.7002 16.911 27.8879 17.5874 28.4679 17.8863C27.1682 20.8201 25.8606 24.2101 24.5844 27.2834C23.8215 27.0829 23.094 26.9551 22.3979 26.8882C14.4912 26.1449 11.0049 33.6367 12.9693 37.9095C14.3713 40.216 16.196 41.1127 18.0129 41.0793C21.1453 41.0222 24.2521 38.2045 25.1311 35.0937C26.9381 29.2478 29.3292 24.8806 31.5689 19.2156C39.8707 20.8378 41.2904 12.3452 35.4838 11.9283ZM24.5117 15.9318C24.433 16.1402 24.3268 16.3821 24.2226 16.6062C24.2148 16.6239 24.2069 16.6397 24.199 16.6574C24.0712 16.9346 23.9198 17.1981 23.7468 17.4498C23.7369 17.4655 23.7271 17.4813 23.7173 17.495C23.5305 17.7566 23.3181 18.0023 23.0822 18.2226C19.8239 21.2448 18.8801 14.3902 24.5117 15.9318ZM21.863 33.9946C20.2467 37.4966 18.9175 38.7904 17.9815 38.7904C15.2679 38.7904 15.8578 27.9068 22.2602 28.536C22.799 28.5911 23.383 28.7267 24.0083 28.9568C23.3279 30.5535 22.4097 32.7676 21.863 33.9946ZM33.4074 16.8992C33.2029 16.8992 32.9984 16.8658 32.7939 16.8304C36.1878 11.3542 38.9367 16.7085 33.4074 16.8992Z" fill="white"/>
<path d="M32.5125 26.8977C32.4791 26.8977 32.4791 26.8977 32.4791 26.9311C32.0367 27.2379 29.972 27.698 27.9644 27.6292L27.1582 29.4933C27.3627 29.5267 29.6849 30.8481 32.4771 30.1992C33.944 28.227 32.5125 26.8977 32.5125 26.8977Z" fill="white"/>
</svg>
