<svg width="40" height="59" viewBox="0 0 40 59" fill="none" xmlns="http://www.w3.org/2000/svg">
<path d="M13.2387 14.2176C13.7735 12.8178 14.7015 11.5752 15.9126 10.6472L25.4546 19.7856L9.72754 56.4837L0.500488 52.9838L13.2387 14.2176Z" fill="#E8EAEF"/>
<path fill-rule="evenodd" clip-rule="evenodd" d="M34.8534 0.967727C29.84 2.27325 25.1194 4.51701 20.9415 7.58024L16.2126 11.0475C15.079 11.9173 14.2108 13.0797 13.7095 14.3865L2.58379 47.6782L11.4545 50.8549L24.9696 19.5873C25.0637 19.3697 25.2977 19.2481 25.5299 19.2961C25.7621 19.3441 25.9286 19.5486 25.9286 19.7857V54.2218C27.4265 55.1994 31.9648 57.1065 39.5253 57.4845C39.8011 57.4983 40.0135 57.733 39.9997 58.0088C39.9859 58.2846 39.7512 58.497 39.4754 58.4832C31.4172 58.0803 26.5953 55.9645 25.132 54.8864C25.0041 54.7922 24.9286 54.6427 24.9286 54.4839V22.2027L12.1841 51.6872L9.95658 56.6872C9.84801 56.9309 9.56726 57.0464 9.31863 56.9497L0.318627 53.4497C0.0770945 53.3558 -0.0526384 53.0929 0.0197546 52.8441L1.47434 47.8442C1.47618 47.8379 1.47814 47.8316 1.48022 47.8254L12.7645 14.0593C12.7667 14.0526 12.7691 14.046 12.7716 14.0394C13.3398 12.552 14.3247 11.2342 15.6085 10.2505L15.6169 10.2441L20.3502 6.77379C24.63 3.63584 29.4657 1.33736 34.6014 0L34.8534 0.967727ZM11.0513 51.7727L2.28611 48.6337L1.10787 52.6837L9.23702 55.8451L11.0513 51.7727Z" fill="white"/>
<path d="M4.95459 51.4839C4.95459 52.0362 4.50687 52.4839 3.95459 52.4839C3.40231 52.4839 2.95459 52.0362 2.95459 51.4839C2.95459 50.9316 3.40231 50.4839 3.95459 50.4839C4.50687 50.4839 4.95459 50.9316 4.95459 51.4839Z" fill="white"/>
</svg>
