<svg width="42" height="62" viewBox="0 0 42 62" fill="none" xmlns="http://www.w3.org/2000/svg">
<path d="M14.7385 14.2176C15.2733 12.8178 16.2013 11.5752 17.4124 10.6472L26.9543 19.7856L20.4998 33.4837L10.4998 29.4837L14.7385 14.2176Z" fill="white"/>
<path fill-rule="evenodd" clip-rule="evenodd" d="M14.569 15.0046C14.8336 15.0836 14.9841 15.3621 14.9052 15.6267L14.4856 17.033C14.4066 17.2976 14.1281 17.4481 13.8635 17.3692C13.5989 17.2902 13.4484 17.0117 13.5273 16.7471L13.9469 15.3408C14.0258 15.0762 14.3044 14.9257 14.569 15.0046ZM13.3103 19.2234C13.5749 19.3023 13.7254 19.5809 13.6464 19.8455L12.8073 22.658C12.7284 22.9226 12.4498 23.0731 12.1852 22.9942C11.9206 22.9152 11.7701 22.6367 11.849 22.3721L12.6882 19.5596C12.7671 19.295 13.0457 19.1444 13.3103 19.2234ZM26.1327 21.5285C26.3841 21.6426 26.4955 21.9389 26.3813 22.1904L25.7411 23.6011C25.627 23.8526 25.3307 23.9639 25.0792 23.8498C24.8277 23.7357 24.7164 23.4393 24.8305 23.1879L25.4707 21.7771C25.5848 21.5257 25.8812 21.4143 26.1327 21.5285ZM11.632 24.8484C11.8966 24.9273 12.0471 25.2059 11.9682 25.4705L11.129 28.283C11.0501 28.5476 10.7716 28.6981 10.5069 28.6192C10.2423 28.5402 10.0918 28.2617 10.1708 27.9971L11.0099 25.1846C11.0889 24.92 11.3674 24.7694 11.632 24.8484ZM24.212 25.7606C24.4635 25.8747 24.5748 26.1711 24.4607 26.4225L23.1803 29.244C23.0662 29.4954 22.7698 29.6068 22.5184 29.4927C22.2669 29.3785 22.1556 29.0822 22.2697 28.8307L23.5501 26.0093C23.6642 25.7578 23.9606 25.6465 24.212 25.7606ZM9.9537 30.4734C10.2183 30.5523 10.3688 30.8309 10.2899 31.0955L9.45073 33.908C9.37178 34.1726 9.09327 34.3231 8.82865 34.2442C8.56404 34.1652 8.41353 33.8867 8.49248 33.6221L9.33162 30.8096C9.41057 30.545 9.68909 30.3944 9.9537 30.4734ZM21.6512 31.4035C21.9027 31.5176 22.014 31.8139 21.8999 32.0654L20.6195 34.8868C20.5054 35.1383 20.209 35.2496 19.9575 35.1355C19.7061 35.0214 19.5947 34.725 19.7089 34.4736L20.9893 31.6521C21.1034 31.4007 21.3997 31.2893 21.6512 31.4035ZM8.27542 36.0984C8.54003 36.1773 8.69054 36.4559 8.61159 36.7205L7.77245 39.533C7.6935 39.7976 7.41498 39.9481 7.15037 39.8692C6.88575 39.7902 6.73524 39.5117 6.81419 39.2471L7.65333 36.4346C7.73229 36.17 8.0108 36.0194 8.27542 36.0984ZM19.0904 37.0463C19.3418 37.1604 19.4532 37.4568 19.3391 37.7083L18.0587 40.5297C17.9445 40.7811 17.6482 40.8925 17.3967 40.7784C17.1453 40.6643 17.0339 40.3679 17.148 40.1164L18.4284 37.295C18.5426 37.0435 18.8389 36.9322 19.0904 37.0463ZM6.59713 41.7234C6.86175 41.8023 7.01226 42.0809 6.93331 42.3455L6.09417 45.158C6.01522 45.4226 5.7367 45.5731 5.47208 45.4942C5.20747 45.4152 5.05696 45.1367 5.13591 44.8721L5.97505 42.0596C6.054 41.795 6.33252 41.6444 6.59713 41.7234ZM16.5296 42.6892C16.781 42.8033 16.8924 43.0997 16.7782 43.3511L15.4978 46.1725C15.3837 46.424 15.0873 46.5353 14.8359 46.4212C14.5844 46.3071 14.4731 46.0107 14.5872 45.7593L15.8676 42.9379C15.9817 42.6864 16.2781 42.5751 16.5296 42.6892ZM4.91885 47.3484C5.18347 47.4273 5.33398 47.7059 5.25503 47.9705L4.41588 50.783C4.33693 51.0476 4.05842 51.1981 3.7938 51.1191C3.52919 51.0402 3.37868 50.7617 3.45763 50.4971L4.29677 47.6846C4.37572 47.42 4.65423 47.2694 4.91885 47.3484ZM13.9687 48.332C14.2202 48.4462 14.3315 48.7425 14.2174 48.994L12.937 51.8154C12.8229 52.0669 12.5265 52.1782 12.2751 52.0641C12.0236 51.95 11.9123 51.6536 12.0264 51.4021L13.3068 48.5807C13.4209 48.3293 13.7173 48.2179 13.9687 48.332ZM3.24057 52.9734C3.50518 53.0523 3.65569 53.3309 3.57674 53.5955L2.7376 56.408C2.65865 56.6726 2.38013 56.8231 2.11552 56.7442C1.8509 56.6652 1.70039 56.3867 1.77934 56.1221L2.61848 53.3096C2.69743 53.045 2.97595 52.8944 3.24057 52.9734ZM11.4079 53.9749C11.6594 54.089 11.7707 54.3854 11.6566 54.6368L10.3762 57.4583C10.2621 57.7097 9.9657 57.8211 9.71424 57.7069C9.46278 57.5928 9.35144 57.2965 9.46556 57.045L10.746 54.2236C10.8601 53.9721 11.1564 53.8608 11.4079 53.9749ZM1.56228 58.5984C1.8269 58.6773 1.97741 58.9559 1.89846 59.2205L1.64474 60.0708L2.82059 60.2388C3.09395 60.2778 3.28391 60.5311 3.24486 60.8045C3.20581 61.0778 2.95254 61.2678 2.67917 61.2287L0.929052 60.9787C0.78503 60.9582 0.657111 60.8759 0.578667 60.7534C0.500223 60.6308 0.479034 60.4802 0.520629 60.3408L0.9402 58.9346C1.01915 58.67 1.29767 58.5194 1.56228 58.5984ZM8.84708 59.6177C9.09854 59.7319 9.20988 60.0282 9.09576 60.2797L8.45555 61.6904C8.36375 61.8927 8.14947 62.0102 7.92954 61.9787L6.17942 61.7287C5.90605 61.6897 5.7161 61.4364 5.75515 61.1631C5.7942 60.8897 6.04746 60.6997 6.32083 60.7388L7.69985 60.9358L8.18514 59.8664C8.29926 59.615 8.59562 59.5036 8.84708 59.6177Z" fill="white"/>
<path fill-rule="evenodd" clip-rule="evenodd" d="M36.3533 0.967727C31.3399 2.27325 26.6193 4.51701 22.4413 7.58024L17.7124 11.0474C16.5813 11.9154 15.7145 13.0746 15.2127 14.378L12.3398 24.1708L22.7335 27.8587L26.4728 19.5799C26.5698 19.3652 26.8034 19.2473 27.0337 19.2969C27.264 19.3465 27.4285 19.5502 27.4285 19.7857V54.2218C28.9263 55.1994 33.4646 57.1065 41.0251 57.4845C41.3009 57.4983 41.5133 57.733 41.4995 58.0088C41.4858 58.2846 41.251 58.497 40.9752 58.4832C32.917 58.0803 28.0952 55.9645 26.6319 54.8864C26.504 54.7922 26.4285 54.6427 26.4285 54.4839V22.1074L23.4566 28.6872L23.4555 28.6896L21.229 33.6872C21.121 33.9297 20.8424 34.0455 20.5943 33.951L10.0943 29.951C9.8509 29.8583 9.71945 29.5942 9.79222 29.3441L11.2468 24.3442L11.2471 24.3431L14.2588 14.077C14.2625 14.0643 14.2668 14.0518 14.2715 14.0394C14.8397 12.552 15.8246 11.2342 17.1083 10.2505L17.1167 10.2441L17.1168 10.2442L21.85 6.77379C26.1299 3.63584 30.9656 1.33736 36.1013 0L36.3533 0.967727ZM22.3231 28.7742L12.059 25.1322L10.8812 29.1807L20.5081 32.8481L22.3231 28.7742Z" fill="white"/>
</svg>
