<svg width="116" height="19" viewBox="0 0 116 19" fill="none" xmlns="http://www.w3.org/2000/svg">
<path d="M4.63905 4.78111V8.02359H9.31696V11.6358H4.63905V18.2426H0.802734V1.16895H10.2805V4.78307H4.63905V4.78111Z" fill="white"/>
<path d="M21.7141 15.2499H14.7847L13.721 18.2446H9.61328L16.0235 1.16895H20.552L26.9858 18.2446H22.7779L21.7141 15.2499ZM20.4773 11.7105L18.2494 5.4005L16.0216 11.7105H20.4773Z" fill="white"/>
<path d="M27.4785 13.1196H31.4132C31.4132 14.2326 32.3531 15.1233 33.5663 15.1233C34.7304 15.1233 35.5955 14.4056 35.5955 13.4893C35.5955 12.3253 34.1857 11.7078 32.5772 11.287C30.1016 10.6676 27.7263 9.18305 27.7263 5.94253C27.7263 3.04808 30.2019 0.869385 33.468 0.869385C36.8088 0.869385 39.2844 3.09724 39.2844 6.06641H35.3498C35.3498 5.05178 34.5573 4.28491 33.4699 4.28491C32.4297 4.28491 31.6629 4.9279 31.6629 5.79505C31.6629 6.8844 32.8014 7.47824 34.459 7.92263C37.0565 8.61478 39.5321 9.87716 39.5321 13.2435C39.5321 16.2619 36.9582 18.5389 33.5191 18.5389C30.076 18.5408 27.4785 16.2147 27.4785 13.1196Z" fill="white"/>
<path d="M56.457 1.16895V18.2446H52.6207V11.4627H45.766V18.2426H41.9297V1.16895H45.766V7.85055H52.6207V1.16895H56.457Z" fill="white"/>
<path d="M59.7227 6.64648V18.2439H63.559V6.64648H59.7227Z" fill="white"/>
<path d="M81.6248 1.16895V18.2446H77.7393L70.6625 7.80139V18.2446H66.8262V1.16895H70.6861L77.7885 11.6122V1.16895H81.6248Z" fill="white"/>
<path d="M97.5888 14.6305V18.2446H84.0762V15.4976L92.144 4.7811H84.1745V1.16895H97.4138V3.91592L89.346 14.6324H97.5888V14.6305Z" fill="white"/>
<path d="M110.726 15.2499H103.796L102.733 18.2446H98.625L105.035 1.16895H109.564L115.998 18.2446H111.79L110.726 15.2499ZM109.489 11.7105L107.261 5.4005L105.033 11.7105H109.489Z" fill="white"/>
</svg>
