<svg width="41" height="59" viewBox="0 0 41 59" fill="none" xmlns="http://www.w3.org/2000/svg">
<path d="M13.8821 14.2176C14.4168 12.8178 15.3448 11.5752 16.5559 10.6472L26.0979 19.7856L10.3708 56.4837L1.1438 52.9838L13.8821 14.2176Z" fill="#E8EAEF"/>
<path fill-rule="evenodd" clip-rule="evenodd" d="M35.4967 0.967727C30.4833 2.27325 25.7627 4.51701 21.5848 7.58024L16.8559 11.0475C15.7223 11.9173 14.8542 13.0797 14.3528 14.3865L3.2271 47.6782L12.0978 50.8549L25.613 19.5873C25.707 19.3697 25.941 19.2481 26.1732 19.2961C26.4054 19.3441 26.5719 19.5486 26.5719 19.7857V54.2218C28.0698 55.1994 32.6081 57.1065 40.1686 57.4845C40.4444 57.4983 40.6568 57.733 40.643 58.0088C40.6292 58.2846 40.3945 58.497 40.1187 58.4832C32.0605 58.0803 27.2386 55.9645 25.7753 54.8864C25.6474 54.7922 25.5719 54.6427 25.5719 54.4839V22.2027L12.8275 51.6872L10.5999 56.6872C10.4913 56.9309 10.2106 57.0464 9.96194 56.9497L0.961938 53.4497C0.720405 53.3558 0.590672 53.0929 0.663065 52.8441L2.11766 47.8442C2.11949 47.8379 2.12145 47.8316 2.12353 47.8254L13.4078 14.0593C13.41 14.0526 13.4124 14.046 13.4149 14.0394C13.9831 12.552 14.968 11.2342 16.2518 10.2505L16.2602 10.2441L20.9935 6.77379C25.2733 3.63584 30.109 1.33736 35.2447 0L35.4967 0.967727ZM11.6946 51.7727L2.92942 48.6337L1.75118 52.6837L9.88033 55.8451L11.6946 51.7727Z" fill="white"/>
<path d="M5.5979 51.4839C5.5979 52.0362 5.15019 52.4839 4.5979 52.4839C4.04562 52.4839 3.5979 52.0362 3.5979 51.4839C3.5979 50.9316 4.04562 50.4839 4.5979 50.4839C5.15019 50.4839 5.5979 50.9316 5.5979 51.4839Z" fill="white"/>
</svg>
