<svg width="17" height="16" viewBox="0 0 17 16" fill="none" xmlns="http://www.w3.org/2000/svg">
<path fill-rule="evenodd" clip-rule="evenodd" d="M4.06314 8.43219C3.51036 7.8794 3.1998 7.12967 3.1998 6.34791C3.1998 5.56615 3.51036 4.81641 4.06314 4.26362C4.61593 3.71084 5.36567 3.40029 6.14743 3.40029C6.92918 3.40029 7.67892 3.71084 8.23171 4.26362L8.79966 4.83158L9.36761 4.26362C9.64128 3.98983 9.96621 3.77264 10.3238 3.62445C10.6815 3.47627 11.0648 3.4 11.4519 3.4C11.839 3.4 12.2223 3.47627 12.58 3.62445C12.9376 3.77264 13.2625 3.98983 13.5362 4.26362C13.81 4.53729 14.0272 4.86222 14.1754 5.21985C14.3235 5.57747 14.3998 5.96079 14.3998 6.34791C14.3998 6.73502 14.3235 7.11834 14.1754 7.47597C14.0272 7.8336 13.81 8.15852 13.5362 8.43219L8.79966 13.1687L4.06314 8.43219ZM14.5259 9.42237L9.78961 14.1587C9.52706 14.4212 9.17096 14.5687 8.79966 14.5687C8.42836 14.5687 8.07226 14.4212 7.80971 14.1587L3.07319 9.42214C2.25786 8.6068 1.7998 7.50097 1.7998 6.34791C1.7998 5.19485 2.25786 4.08901 3.07319 3.27368C3.88853 2.45834 4.99436 2.00029 6.14743 2.00029C7.11201 2.00029 8.04354 2.32083 8.79961 2.90293C9.10183 2.67018 9.43402 2.47773 9.78793 2.33109C10.3155 2.1125 10.8809 2 11.4519 2C12.0229 2 12.5883 2.1125 13.1159 2.33109C13.6432 2.54958 14.1223 2.8698 14.5259 3.27344C14.9295 3.67702 15.2502 4.15661 15.4687 4.68394C15.6873 5.21146 15.7998 5.77689 15.7998 6.34791C15.7998 6.91893 15.6873 7.48435 15.4687 8.01188C15.2502 8.5393 14.9297 9.01874 14.5259 9.42237C14.5258 9.42245 14.526 9.42229 14.5259 9.42237Z" fill="#2C3556"/>
</svg>
