<svg width="16" height="16" viewBox="0 0 16 16" fill="none" xmlns="http://www.w3.org/2000/svg">
<path fill-rule="evenodd" clip-rule="evenodd" d="M3.26334 8.43219C2.71055 7.8794 2.4 7.12967 2.4 6.34791C2.4 5.56615 2.71055 4.81641 3.26334 4.26362C3.81612 3.71084 4.56586 3.40029 5.34762 3.40029C6.12938 3.40029 6.87912 3.71084 7.4319 4.26362L7.99986 4.83158L8.56781 4.26362C8.84148 3.98983 9.1664 3.77264 9.52403 3.62445C9.88166 3.47627 10.265 3.4 10.6521 3.4C11.0392 3.4 11.4225 3.47627 11.7802 3.62445C12.1378 3.77264 12.4627 3.98983 12.7364 4.26362C13.0102 4.53729 13.2274 4.86222 13.3755 5.21985C13.5237 5.57747 13.6 5.96079 13.6 6.34791C13.6 6.73502 13.5237 7.11834 13.3755 7.47597C13.2274 7.8336 13.0102 8.15852 12.7364 8.43219L7.99986 13.1687L3.26334 8.43219ZM13.7261 9.42237L8.98981 14.1587C8.72726 14.4212 8.37116 14.5687 7.99986 14.5687C7.62855 14.5687 7.27246 14.4212 7.00991 14.1587L2.27339 9.42214C1.45805 8.6068 1 7.50097 1 6.34791C1 5.19485 1.45805 4.08901 2.27339 3.27368C3.08873 2.45834 4.19456 2.00029 5.34762 2.00029C6.3122 2.00029 7.24373 2.32083 7.9998 2.90293C8.30202 2.67018 8.63422 2.47773 8.98812 2.33109C9.51565 2.1125 10.0811 2 10.6521 2C11.2231 2 11.7885 2.1125 12.3161 2.33109C12.8434 2.54958 13.3225 2.8698 13.7261 3.27344C14.1297 3.67702 14.4504 4.15661 14.6689 4.68394C14.8875 5.21146 15 5.77689 15 6.34791C15 6.91893 14.8875 7.48435 14.6689 8.01188C14.4504 8.5393 14.1298 9.01874 13.7261 9.42237C13.726 9.42245 13.7262 9.42229 13.7261 9.42237Z" fill="#2C3556"/>
</svg>
