<svg width="17" height="16" viewBox="0 0 17 16" fill="none" xmlns="http://www.w3.org/2000/svg">
<path fill-rule="evenodd" clip-rule="evenodd" d="M3.46329 8.43219C2.9105 7.8794 2.59995 7.12967 2.59995 6.34791C2.59995 5.56615 2.9105 4.81641 3.46329 4.26362C4.01608 3.71084 4.76581 3.40029 5.54757 3.40029C6.32933 3.40029 7.07907 3.71084 7.63185 4.26362L8.19981 4.83158L8.76776 4.26362C9.04143 3.98983 9.36636 3.77264 9.72398 3.62445C10.0816 3.47627 10.4649 3.4 10.852 3.4C11.2392 3.4 11.6225 3.47627 11.9801 3.62445C12.3377 3.77264 12.6627 3.98983 12.9363 4.26362C13.2101 4.53729 13.4273 4.86222 13.5755 5.21985C13.7237 5.57747 13.8 5.96079 13.8 6.34791C13.8 6.73502 13.7237 7.11834 13.5755 7.47597C13.4273 7.8336 13.2101 8.15852 12.9363 8.43219L8.19981 13.1687L3.46329 8.43219ZM13.926 9.42237L9.18976 14.1587C8.92721 14.4212 8.57111 14.5687 8.19981 14.5687C7.8285 14.5687 7.47241 14.4212 7.20986 14.1587L2.47334 9.42214C1.658 8.6068 1.19995 7.50097 1.19995 6.34791C1.19995 5.19485 1.658 4.08901 2.47334 3.27368C3.28868 2.45834 4.39451 2.00029 5.54757 2.00029C6.51215 2.00029 7.44368 2.32083 8.19975 2.90293C8.50197 2.67018 8.83417 2.47773 9.18808 2.33109C9.7156 2.1125 10.281 2 10.852 2C11.4231 2 11.9885 2.1125 12.516 2.33109C13.0433 2.54958 13.5225 2.8698 13.926 3.27344C14.3297 3.67702 14.6504 4.15661 14.8689 4.68394C15.0874 5.21146 15.2 5.77689 15.2 6.34791C15.2 6.91893 15.0874 7.48435 14.8689 8.01188C14.6503 8.5393 14.3298 9.01874 13.926 9.42237C13.926 9.42245 13.9261 9.42229 13.926 9.42237Z" fill="#2C3556"/>
</svg>
