<svg width="107" height="106" viewBox="0 0 107 106" fill="none" xmlns="http://www.w3.org/2000/svg">
<circle cx="53.5999" cy="53" r="52.4999" fill="white" stroke="#FA5762" stroke-width="1.00026"/>
<rect width="72" height="72" transform="translate(17.5979 17)" fill="white"/>
<path d="M22.3638 71H72.8133C73.2846 71 73.6422 70.6072 73.5934 70.1516L68.9451 31.4376C68.8963 31.0605 68.5713 30.7619 68.1649 30.7619H63.9464H59.8921C59.502 30.7619 59.177 31.0448 59.112 31.4061L56.9666 45.9239C56.9503 46.0181 56.8366 46.0653 56.7553 45.9867L47.0522 37.2667C46.971 37.2038 46.8572 37.2509 46.8409 37.3452L46.0445 45.4368C46.0283 45.5311 45.9145 45.5782 45.8495 45.5154L34.9925 36.7482C34.9112 36.6853 34.7974 36.7324 34.7974 36.8424L34.7487 45.9082C34.7487 46.0025 34.6349 46.0653 34.5536 46.0025L21.795 37.1095C21.7137 37.0467 21.6 37.1095 21.6 37.2038V70.2144C21.5674 70.6543 21.925 71 22.3638 71Z" fill="white"/>
<path d="M28.7513 24.8229C29.6289 24.0216 30.6366 23.0632 31.8231 23.2517C33.3996 23.5031 34.066 25.6085 35.6263 25.8913C37.6904 26.2684 39.0557 23.2674 41.1361 23.4088C42.8264 23.5188 43.8341 25.6713 45.5406 25.7027C47.4747 25.7342 48.5312 23.0317 50.4816 23.0003C52.3344 22.9689 53.3258 25.3571 55.1462 25.7342C56.3814 25.9856 57.5679 25.2157 58.6406 24.5558C59.7133 23.8959 61.0623 23.2989 62.1838 23.8645C63.2077 24.383 63.5328 25.6399 63.6953 26.7555C63.8709 28.0836 63.9546 29.4245 63.9464 30.7619M63.9464 30.7619H68.1649C68.5713 30.7619 68.8963 31.0605 68.9451 31.4376L73.5934 70.1516C73.6422 70.6072 73.2846 71 72.8133 71H22.3638C21.925 71 21.5674 70.6543 21.6 70.2144V37.2038C21.6 37.1095 21.7137 37.0467 21.795 37.1095L34.5536 46.0025C34.6349 46.0653 34.7487 46.0025 34.7487 45.9082L34.7974 36.8424C34.7974 36.7324 34.9112 36.6853 34.9925 36.7482L45.8495 45.5154C45.9145 45.5782 46.0283 45.5311 46.0445 45.4368L46.8409 37.3452C46.8572 37.2509 46.971 37.2038 47.0522 37.2667L56.7553 45.9867C56.8366 46.0653 56.9503 46.0181 56.9666 45.9239L59.112 31.4061C59.177 31.0448 59.502 30.7619 59.8921 30.7619H63.9464Z" stroke="#2C3556" stroke-width="2" stroke-miterlimit="10" stroke-linecap="round"/>
<path d="M51.4729 58.2891V55.0053C51.4729 54.4711 51.928 54.0311 52.4806 54.0311H55.8774M42.7775 62.547H35.9838C35.4312 62.547 34.9761 62.1071 34.9761 61.5729V55.0053C34.9761 54.4711 35.4312 54.0312 35.9838 54.0312H42.7775C43.3301 54.0312 43.7852 54.4711 43.7852 55.0053V61.5729C43.7852 62.1071 43.3301 62.547 42.7775 62.547Z" stroke="#FA5762" stroke-width="2" stroke-miterlimit="10" stroke-linecap="round"/>
<path d="M59.1091 58.8731L56.3822 58.2289C55.9528 58.1216 55.5019 58.3363 55.3086 58.7442L53.913 61.7288C53.7197 62.1368 53.8486 62.6306 54.2351 62.9097L56.5969 64.5416C56.876 64.7348 57.0263 65.0354 57.0049 65.3575L56.876 67.9126C56.8546 68.2132 56.6828 68.5137 56.4251 68.664L54.0418 70.1241C53.6553 70.3603 53.505 70.8327 53.6553 71.2621L54.7933 74.354C54.9436 74.7835 55.3945 75.041 55.8454 74.9552L58.6796 74.4399C59.0017 74.3754 59.3238 74.5043 59.56 74.7405L61.2562 76.63C61.4709 76.8662 61.5354 77.1882 61.4709 77.4888L60.8268 80.2157C60.7194 80.6451 60.9342 81.096 61.3421 81.2893L64.3266 82.685C64.7346 82.8782 65.2285 82.7493 65.5076 82.3628L67.1394 80.001C67.3327 79.7219 67.6333 79.5716 67.9553 79.5931L70.5104 79.7219C70.811 79.7434 71.1116 79.915 71.2619 80.1727L72.722 82.556C72.9582 82.9425 73.4306 83.0929 73.86 82.9426L76.9519 81.8046C77.3813 81.6543 77.639 81.2034 77.5531 80.7525L77.0378 77.9182C76.9734 77.5962 77.1022 77.2741 77.3384 77.038L79.2279 75.3416C79.4641 75.1269 79.7861 75.0626 80.0867 75.127L82.8136 75.7711C83.243 75.8784 83.6939 75.6637 83.8872 75.2558L85.2828 72.2712C85.4761 71.8633 85.3472 71.3695 84.9607 71.0903L82.5989 69.4585C82.3198 69.2652 82.1695 68.9646 82.1909 68.6425L82.3198 66.0874C82.3412 65.7868 82.513 65.4863 82.7707 65.336L85.154 63.8759C85.5405 63.6398 85.6908 63.1673 85.5405 62.7379L84.4025 59.646C84.2522 59.2166 83.8013 58.959 83.3504 59.0449L80.5162 59.5602C80.1941 59.6246 79.872 59.4957 79.6358 59.2595L77.9396 57.37C77.7249 57.1338 77.6605 56.8118 77.7249 56.5112L78.369 53.7843C78.4764 53.3549 78.2616 52.904 77.8537 52.7108L74.8692 51.3151C74.4612 51.1218 73.9673 51.2507 73.6882 51.6372L72.0564 53.999C71.8632 54.2781 71.5625 54.4284 71.2405 54.407L68.6854 54.2781C68.3848 54.2567 68.0842 54.085 67.9339 53.8273L66.4738 51.4439C66.2376 51.0574 65.7652 50.9071 65.3358 51.0574L62.2439 52.1955C61.8145 52.3458 61.5568 52.7966 61.6427 53.2475L62.158 56.0818C62.2225 56.4039 62.0936 56.7259 61.8574 56.9621L59.9679 58.6584C59.7317 58.8516 59.4097 58.9375 59.1091 58.8731Z" fill="white" stroke="#2C3556" stroke-width="2" stroke-miterlimit="10"/>
<path d="M69.5979 74.5C73.74 74.5 77.0979 71.1421 77.0979 66.9999C77.0979 62.8578 73.74 59.5 69.5979 59.5C65.4558 59.5 62.0979 62.8578 62.0979 66.9999C62.0979 71.1421 65.4558 74.5 69.5979 74.5Z" stroke="#FA5762" stroke-width="2" stroke-miterlimit="10" stroke-linecap="round"/>
</svg>
