<svg width="107" height="106" viewBox="0 0 107 106" fill="none" xmlns="http://www.w3.org/2000/svg">
<circle cx="53.3999" cy="53" r="52.4999" fill="white" stroke="#FA5762" stroke-width="1.00026"/>
<rect width="72" height="72" transform="translate(17.3999 17)" fill="white"/>
<path d="M79.4273 75.9947L49.6351 74.2657C47.6288 74.141 46.0841 72.4119 46.2084 70.3978L48.3212 33.4472C48.4455 31.433 50.1677 29.8823 52.174 30.007L81.9662 31.736C83.9725 31.8608 85.5171 33.5898 85.3929 35.604L83.2801 72.5546C83.1558 74.5688 81.4336 76.1017 79.4273 75.9947Z" fill="white" stroke="#2C3556" stroke-width="2" stroke-miterlimit="10"/>
<path d="M43.847 63.9275L36.3368 41.611C35.8929 40.2919 36.5853 38.8482 37.8992 38.3847L45.1253 35.8001" stroke="#2C3556" stroke-width="2" stroke-miterlimit="10" stroke-linecap="round" stroke-linejoin="round"/>
<path d="M44.0603 72.0723L29.0399 47.9912C28.3119 46.7079 28.8268 45.068 30.1584 44.4263L33.1234 43.0003" stroke="#2C3556" stroke-width="2" stroke-miterlimit="10" stroke-linecap="round" stroke-linejoin="round"/>
<path d="M39.9944 72.0728L22.1687 56.0484C21.0324 54.9433 21.1745 53.0539 22.4706 52.127L25.3645 50.0593" stroke="#2C3556" stroke-width="2" stroke-miterlimit="10" stroke-linecap="round" stroke-linejoin="round"/>
<path d="M70.1617 41.329C69.5772 42.5708 68.2878 43.4346 66.8399 43.333C65.3765 43.2302 64.1718 42.207 63.7823 40.8734L59.2577 41.2676C59.156 41.2761 59.0598 41.3162 58.9853 41.3814L53.7079 45.9936C53.509 46.1673 53.4879 46.4709 53.6607 46.6708L56.1592 49.5605C56.3393 49.7687 56.6495 49.7826 56.8494 49.5933L58.4747 48.0413C58.5835 47.9316 58.7716 48.023 58.7608 48.1787L57.8462 61.3104C57.8277 61.575 58.0221 61.7999 58.2854 61.8183L73.0196 62.8527C73.2828 62.8712 73.5065 62.6757 73.525 62.4111L74.4642 49.4845C74.4756 49.321 74.6895 49.2656 74.7732 49.4045L75.7913 50.9856C75.9454 51.2311 76.2844 51.2784 76.4998 51.0901L79.3995 48.5559C79.5983 48.3822 79.6195 48.0786 79.4467 47.8787L74.9104 42.6324C74.8456 42.5574 74.7637 42.5047 74.6718 42.4826L70.1617 41.329Z" fill="white" stroke="#FA5762" stroke-width="2" stroke-miterlimit="10" stroke-linecap="round" stroke-linejoin="round"/>
<path d="M66.5893 46.6006C66.9485 46.6259 67.2601 46.3535 67.2852 45.9924C67.3104 45.6313 67.0396 45.3181 66.6804 45.2929C66.3212 45.2677 66.0096 45.54 65.9845 45.9011C65.9593 46.2622 66.2301 46.5754 66.5893 46.6006Z" fill="#FA5762"/>
<path d="M66.4179 49.0603C66.7771 49.0856 67.0887 48.8133 67.1139 48.4521C67.139 48.091 66.8682 47.7778 66.509 47.7526C66.1498 47.7274 65.8383 47.9997 65.8131 48.3608C65.7879 48.7219 66.0587 49.0351 66.4179 49.0603Z" fill="#FA5762"/>
<path d="M66.2468 51.5201C66.606 51.5453 66.9176 51.273 66.9427 50.9119C66.9679 50.5507 66.6971 50.2376 66.3379 50.2123C65.9787 50.1871 65.6671 50.4594 65.642 50.8205C65.6168 51.1817 65.8876 51.4948 66.2468 51.5201Z" fill="#FA5762"/>
</svg>
